<?xml version="1.0" encoding="utf-8"?>
<!-- Generator: Adobe Illustrator 19.1.1, SVG Export Plug-In . SVG Version: 6.00 Build 0)  -->
<!DOCTYPE svg PUBLIC "-//W3C//DTD SVG 1.1//EN" "http://www.w3.org/Graphics/SVG/1.1/DTD/svg11.dtd">
<svg version="1.1" id="Capa_1" xmlns="http://www.w3.org/2000/svg" xmlns:xlink="http://www.w3.org/1999/xlink" x="0px" y="0px"
	 viewBox="-56 57.6 486.4 486.4" style="enable-background:new -56 57.6 486.4 486.4;" xml:space="preserve">
<style type="text/css">
	.st0{fill:#DDA14A;}
</style>
<g>
	<g>
		<g>
			<g>
				<path class="st0" d="M339.2,57.6h-304c-50.4,0-91.2,40.8-91.2,91.2v304c0,50.4,40.8,91.2,91.2,91.2h304
					c50.4,0,91.2-40.8,91.2-91.2v-304C430.4,98.4,389.6,57.6,339.2,57.6z M119.3,464.4c-53.8,0-99.3-21.9-99.3-56.9
					c0-35.5,41.4-69.9,95.3-69.8l16.8-0.2c-7.4-7.1-13.2-15.9-13.2-26.8c0-6.4,2.1-12.6,4.9-18.1l-9,0.3
					c-44.2,0-73.8-31.5-73.8-70.5c0-38.2,40.9-71.1,84.4-71.1h97l-21.8,15.7h-30.7c20.4,7.8,31.3,31.6,31.3,56
					c0,20.5-11.3,38.1-27.4,50.6c-15.7,12.3-18.6,17.4-18.6,27.8c0,8.9,16.8,24,25.5,30.2c25.6,18.1,33.9,34.9,33.9,63
					C214.6,429.6,180.7,464.4,119.3,464.4z M369.6,271h-60.8v60.7h-30.4V271h-60.8v-31h60.8v-60.8h30.4V240h60.8V271z"/>
				<path class="st0" d="M166.3,225c-4.3-32.8-28.1-59.1-53-59.9c-25-0.7-41.7,24.4-37.4,57.2c4.3,32.8,28.1,60,53,60.7
					C153.9,283.8,170.7,257.8,166.3,225z"/>
				<path class="st0" d="M149.8,350.6c-7.4-2.4-15.5-3.8-24.1-3.9c-37.2-0.4-70.5,22.7-70.5,50.4c0,28.3,26.9,51.9,64.1,51.9
					c52.3,0,70.5-22.1,70.5-50.4c0-3.4-0.5-6.7-1.2-10C184.5,372.6,170,364.6,149.8,350.6z"/>
			</g>
		</g>
	</g>
</g>
</svg>
