<?xml version="1.0" encoding="utf-8"?>
<!-- Generator: Adobe Illustrator 19.1.1, SVG Export Plug-In . SVG Version: 6.00 Build 0)  -->
<!DOCTYPE svg PUBLIC "-//W3C//DTD SVG 1.1//EN" "http://www.w3.org/Graphics/SVG/1.1/DTD/svg11.dtd">
<svg version="1.1" id="Capa_1" xmlns="http://www.w3.org/2000/svg" xmlns:xlink="http://www.w3.org/1999/xlink" x="0px" y="0px"
	 viewBox="143 -143.4 486.4 486.4" style="enable-background:new 143 -143.4 486.4 486.4;" xml:space="preserve">
<style type="text/css">
	.st0{fill:#DDA14A;}
	.st1{fill:#FFFFFF;}
</style>
<g>
	<rect x="206" y="-56.4" class="st0" width="366.6" height="343"/>
	<path class="st1" d="M538.2-143.4h-304c-50.4,0-91.2,40.8-91.2,91.2v304c0,50.4,40.8,91.2,91.2,91.2h304
		c50.4,0,91.2-40.8,91.2-91.2v-304C629.4-102.6,588.6-143.4,538.2-143.4z M318.3,263.4c-53.8,0-99.3-21.9-99.3-56.9
		c0-35.5,41.4-69.9,95.3-69.8l16.8-0.2c-7.4-7.1-13.2-15.9-13.2-26.8c0-6.4,2.1-12.6,4.9-18.1l-9,0.3c-44.2,0-73.8-31.5-73.8-70.5
		c0-38.2,40.9-71.1,84.4-71.1h97l-21.8,15.7h-30.7c20.4,7.8,31.3,31.6,31.3,56c0,20.5-11.3,38.1-27.4,50.6
		c-15.7,12.3-18.6,17.4-18.6,27.8c0,8.9,16.8,24,25.5,30.2c25.6,18.1,33.9,34.9,33.9,63C413.6,228.6,379.7,263.4,318.3,263.4z
		 M568.6,70h-60.8v60.7h-30.4V70h-60.8V39h60.8v-60.8h30.4V39h60.8V70z"/>
	<path class="st1" d="M365.3,24c-4.3-32.8-28.1-59.1-53-59.9c-25-0.7-41.7,24.4-37.4,57.2c4.3,32.8,28.1,60,53,60.7
		C352.9,82.8,369.7,56.8,365.3,24z"/>
	<path class="st1" d="M348.8,149.6c-7.4-2.4-15.5-3.8-24.1-3.9c-37.2-0.4-70.5,22.7-70.5,50.4c0,28.3,26.9,51.9,64.1,51.9
		c52.3,0,70.5-22.1,70.5-50.4c0-3.4-0.5-6.7-1.2-10C383.5,171.6,369,163.6,348.8,149.6z"/>
</g>
</svg>
