<?xml version="1.0" encoding="utf-8"?>
<!-- Generator: Adobe Illustrator 19.1.1, SVG Export Plug-In . SVG Version: 6.00 Build 0)  -->
<!DOCTYPE svg PUBLIC "-//W3C//DTD SVG 1.1//EN" "http://www.w3.org/Graphics/SVG/1.1/DTD/svg11.dtd">
<svg version="1.1" id="Layer_1" xmlns="http://www.w3.org/2000/svg" xmlns:xlink="http://www.w3.org/1999/xlink" x="0px" y="0px"
	 viewBox="124.4 59.9 98.4 80" style="enable-background:new 124.4 59.9 98.4 80;" xml:space="preserve">
<style type="text/css">
	.st0{fill:#DDA14A;}
</style>
<path class="st0" d="M222.9,69.4c-3.6,1.6-7.5,2.7-11.6,3.2c4.2-2.5,7.4-6.4,8.9-11.2c-3.9,2.3-8.2,4-12.8,4.9
	c-3.7-3.9-8.9-6.4-14.7-6.4c-11.2,0-20.2,9-20.2,20.2c0,1.6,0.2,3.1,0.5,4.6c-16.8-0.9-31.7-8.9-41.6-21.1c-1.7,3-2.7,6.4-2.7,10.1
	c0,7,3.6,13.2,9,16.8c-3.3-0.1-6.4-1-9.1-2.5c0,0.1,0,0.2,0,0.3c0,9.8,6.9,17.9,16.2,19.8c-1.7,0.5-3.5,0.7-5.3,0.7
	c-1.3,0-2.6-0.1-3.8-0.4c2.6,8,10,13.9,18.9,14c-6.9,5.4-15.6,8.6-25.1,8.6c-1.6,0-3.2-0.1-4.8-0.3c8.9,5.7,19.5,9.1,30.9,9.1
	c37.1,0,57.4-30.8,57.4-57.4c0-0.9,0-1.8-0.1-2.6C216.7,77,220.2,73.4,222.9,69.4z"/>
</svg>
