<?xml version="1.0" encoding="utf-8"?>
<!-- Generator: Adobe Illustrator 19.1.1, SVG Export Plug-In . SVG Version: 6.00 Build 0)  -->
<!DOCTYPE svg PUBLIC "-//W3C//DTD SVG 1.1//EN" "http://www.w3.org/Graphics/SVG/1.1/DTD/svg11.dtd">
<svg version="1.1" id="Layer_1" xmlns="http://www.w3.org/2000/svg" xmlns:xlink="http://www.w3.org/1999/xlink" x="0px" y="0px"
	 viewBox="-46.5 83.2 108 23" style="enable-background:new -46.5 83.2 108 23;" xml:space="preserve">
<style type="text/css">
	.st0{fill:#3B73B9;}
</style>
<g>
	<g>
		<path class="st0" d="M-46,102.2h2.2V89.1H-46v-2.9h7.5c4.6,0,6.9,2.1,6.9,5c0,2.2-1.3,3.6-3.2,4.2c2.3,0.7,3.8,2.1,3.8,4.4
			c0,3.1-2.5,5.3-7.1,5.3H-46V102.2z M-38.4,94.2c2.3,0,3.5-1,3.5-2.7c0-1.6-1.3-2.4-3.6-2.4h-2.1v5.2L-38.4,94.2L-38.4,94.2z
			 M-38.1,102.2c2.2,0,3.7-0.9,3.7-2.7c0-1.7-1.4-2.7-3.8-2.7h-2.4v5.4H-38.1z"/>
		<path class="st0" d="M-30.7,102.5h1.9V86.7h-1.9v-2.6h5.1v18.4h1.9v2.6h-6.9v-2.6H-30.7z"/>
		<path class="st0" d="M-21.7,103.6c-0.4-0.7-0.6-1.5-0.6-2.5v-6h-1.9v-2.6h5v7.8c0,0.5,0.1,0.9,0.3,1.3c0.3,0.5,0.8,0.8,1.5,0.8
			c1.1,0,2.2-0.6,3.2-1.5v-5.8h-1.9v-2.6h5.1v10h1.9v2.6H-14v-2c-1.2,1.2-2.5,2.2-4.4,2.2C-20,105.3-21.1,104.7-21.7,103.6z"/>
		<path class="st0" d="M-5.7,99.9c0.4,1.9,2,2.8,4.1,2.8c1.5,0,3.1-0.5,4.6-1.3l-0.3,2.8c-1.3,0.8-2.9,1.1-4.8,1.1
			c-4.1,0-6.9-2.6-6.9-6.5c0-3.6,2.5-6.5,6.4-6.5c4,0,6.1,2.7,6.1,6c0,0.5-0.1,1.1-0.1,1.5L-5.7,99.9L-5.7,99.9z M-5.7,97.7h6.1
			c-0.1-1.7-1.2-2.9-3-2.9C-4,94.8-5.4,95.6-5.7,97.7z"/>
		<path class="st0" d="M4,102.2h2.2V89.1H4v-2.9h7.3c4.3,0,7.4,1.9,7.4,5.7c0,2.4-1.5,4.3-3.6,5.1l2.9,5.1h2.1v3h-4.4l-3.8-7.2
			c-0.4,0-0.8,0.1-1.1,0.1c-0.6,0-1.1,0-1.5,0v4.2h2.4v2.9H4V102.2z M15.4,92c0-2-1.6-2.9-4.2-2.9H9.5v6c0.3,0,0.8,0.1,1.8,0.1
			C13.7,95.2,15.4,94,15.4,92z"/>
		<path class="st0" d="M20.1,98.8c0-3.4,2.6-6.5,6.7-6.5c4.2,0,6.7,3,6.7,6.5c0,3.4-2.6,6.5-6.7,6.5
			C22.6,105.3,20.1,102.3,20.1,98.8z M30.3,98.8c0-2.3-1.4-3.9-3.5-3.9c-2,0-3.5,1.6-3.5,3.9s1.4,3.9,3.5,3.9
			C28.8,102.7,30.3,101.1,30.3,98.8z"/>
		<path class="st0" d="M34,98.7c0-3.3,2.6-6.4,6.4-6.4c3.4,0,5.7,2.2,5.7,4.2c0,1.3-0.9,2.1-2,2.1c-1,0-1.9-0.9-1.9-1.9
			c0-0.4,0.2-0.8,0.4-1.1c-0.2-0.3-1-0.9-2.2-0.9c-1.4,0-3.2,1.2-3.2,3.9c0,2.4,1.8,3.9,4.1,3.9c1.5,0,2.8-0.4,4.5-1.3l-0.3,2.8
			c-1.3,0.8-2.6,1.1-4.5,1.1C37,105.3,34,102.7,34,98.7z"/>
		<path class="st0" d="M46.6,102.5h1.9V86.7h-1.9v-2.6h5v14.1l3.7-3.2h-1.7v-2.5H61v2.6h-2.3l-2.9,2.5l3.2,4.8h2.1v2.7H57l-3.6-5.6
			l-1.8,1.5v1.6h1.6v2.5h-6.6V102.5z"/>
	</g>
</g>
</svg>
