<?xml version="1.0" encoding="utf-8"?>
<!-- Generator: Adobe Illustrator 19.1.1, SVG Export Plug-In . SVG Version: 6.00 Build 0)  -->
<!DOCTYPE svg PUBLIC "-//W3C//DTD SVG 1.1//EN" "http://www.w3.org/Graphics/SVG/1.1/DTD/svg11.dtd">
<svg version="1.1" id="Layer_1" xmlns="http://www.w3.org/2000/svg" xmlns:xlink="http://www.w3.org/1999/xlink" x="0px" y="0px"
	 viewBox="64.7 62 331 56" style="enable-background:new 64.7 62 331 56;" xml:space="preserve">
<style type="text/css">
	.st0{opacity:0.5;fill:#2D5161;stroke:#2D5161;stroke-miterlimit:10;enable-background:new    ;}
	.st1{fill:#2D5161;stroke:#2D5161;stroke-width:0.4753;stroke-miterlimit:1;}
	.st2{fill:#2D5161;stroke:#2D5161;stroke-miterlimit:10;}
</style>
<g>
	<path class="st0" d="M263.3,87.3"/>
	<path class="st1" d="M93.6,112.1c-3.1,2.8-7,4.2-11.5,4.2H65.8V64.6h12.6c4,0,7.2,1,9.6,3.1c2.5,2.2,3.8,5.3,3.8,9.3
		c0,4.5-1.9,7.9-5.6,10c3.6,0.7,6.6,2.4,8.8,4.9c2.2,2.6,3.3,5.7,3.3,9.4C98.3,105.8,96.7,109.4,93.6,112.1z M85.9,70.1
		c-2-1.7-4.4-2.6-7.3-2.6h-9.9v18.9h10.4c2.8,0,5.1-0.9,7-2.6c1.8-1.7,2.8-4,2.8-6.8C88.8,74.1,87.9,71.8,85.9,70.1z M91.4,92.6
		c-2.5-2.1-5.6-3.2-9.3-3.2H68.7v24H82c3.7,0,6.8-1.1,9.4-3.3c2.6-2.2,3.9-5.1,3.9-8.7C95.4,97.7,94,94.8,91.4,92.6z"/>
	<path class="st1" d="M134.9,116.4l-16.5-25.9h-5.6v25.9H110V64.6h12c1.9,0,3.8,0.3,5.5,0.8c1.7,0.6,3.2,1.4,4.5,2.5s2.3,2.4,3,4
		s1.1,3.4,1.1,5.5c0,2.3-0.4,4.2-1.1,5.9c-0.7,1.6-1.7,3-3,4.1s-2.8,1.9-4.5,2.4c-1.7,0.5-3.7,0.8-5.7,0.8l16.6,25.9L134.9,116.4
		L134.9,116.4z M132.2,73c-0.6-1.2-1.4-2.2-2.4-3c-1-0.8-2.2-1.4-3.6-1.8c-1.4-0.4-2.8-0.6-4.4-0.6h-9v20h9.8c3.1,0,5.6-0.9,7.5-2.6
		c1.9-1.7,2.9-4.3,2.9-7.5C133,75.7,132.7,74.2,132.2,73z"/>
	<path class="st1" d="M187.4,116.4l-5.9-15.6h-23.6l-6,15.5H149l20.7-53.5l20.8,53.5L187.4,116.4L187.4,116.4z M169.7,70.4
		l-10.6,27.5h21.2L169.7,70.4z"/>
	<path class="st1" d="M205,72.4v44h-2.9V64.2l38.7,45.3v-45h3v52.7L205,72.4z"/>
	<path class="st1" d="M291.7,108.5c-4.4,5.2-10,7.8-17,7.8h-17.3V64.6h17.3c7,0,12.6,2.6,17,7.8c4.1,4.9,6.2,10.9,6.2,18
		C297.8,97.5,295.8,103.6,291.7,108.5z M289.5,74.4c-3.8-4.6-8.7-7-14.9-7h-14.4v45.9h14.4c5.3,0,9.9-2,13.9-5.9
		c4.2-4.3,6.3-9.9,6.3-17C294.8,84,293,78.7,289.5,74.4z"/>
	<path class="st1" d="M309,116.4V64.6h24.9v3H312v18.9h21.9v3.2H312v23.8h21.9v3L309,116.4L309,116.4z"/>
	<path class="st1" d="M381.1,108.5c-4.4,5.2-10,7.8-17,7.8h-17.3V64.6H364c7,0,12.6,2.6,17,7.8c4.1,4.9,6.2,10.9,6.2,18
		S385.1,103.6,381.1,108.5z M378.9,74.4c-3.8-4.6-8.7-7-14.9-7h-14.4v45.9H364c5.3,0,9.9-2,13.9-5.9c4.2-4.3,6.3-9.9,6.3-17
		C384.2,84,382.4,78.7,378.9,74.4z"/>
	<path class="st2" d="M394.4,113.8c0,0.8-0.3,1.5-0.9,2c-0.6,0.6-1.2,0.9-2,0.9s-1.5-0.3-2-0.8c-0.6-0.6-0.8-1.2-0.8-2
		c0-0.8,0.3-1.5,0.8-2c0.6-0.6,1.2-0.8,2-0.8s1.5,0.3,2,0.8C394.1,112.4,394.4,113.1,394.4,113.8z"/>
</g>
</svg>
