<?xml version="1.0" encoding="utf-8"?>
<!-- Generator: Adobe Illustrator 19.1.1, SVG Export Plug-In . SVG Version: 6.00 Build 0)  -->
<!DOCTYPE svg PUBLIC "-//W3C//DTD SVG 1.1//EN" "http://www.w3.org/Graphics/SVG/1.1/DTD/svg11.dtd">
<svg version="1.1" id="Layer_1" xmlns="http://www.w3.org/2000/svg" xmlns:xlink="http://www.w3.org/1999/xlink" x="0px" y="0px"
	 viewBox="1444.6 226.6 977 82" style="enable-background:new 1444.6 226.6 977 82;" xml:space="preserve">
<style type="text/css">
	.st0{fill:#EF7622;}
	.st1{fill:#5B2B82;}
	.st2{fill:none;stroke:#5B2B82;stroke-width:3.0619;}
	.st3{fill:none;stroke:#EF7622;stroke-width:3.0619;}
</style>
<g>
	<g>
		<path class="st0" d="M1450.3,227.2c1.4,0,2.5,0.4,3.4,1.4c0.9,0.9,1.4,2,1.4,3.4c0,1.2-0.4,2.4-1.4,3.4c-0.9,0.9-2,1.4-3.4,1.4
			c-1.2,0-2.4-0.4-3.4-1.4c-0.9-0.9-1.4-2-1.4-3.4c0-1.4,0.4-2.5,1.4-3.4C1447.9,227.6,1449.1,227.2,1450.3,227.2z M1447.3,245.7
			h5.8v45.1h-5.8V245.7z"/>
		<path class="st0" d="M1467.5,245.7h5.8v7.8c2-2.8,4-5,6.2-6.3c2.9-1.8,6-2.6,9.3-2.6c2.1,0,4.3,0.4,6.2,1.2c1.9,0.9,3.6,2,4.9,3.4
			c1.2,1.5,2.4,3.5,3.3,6.1c1.9-3.5,4.3-6.2,7.2-8c2.9-1.8,6-2.7,9.4-2.7c3.2,0,5.9,0.8,8.2,2.4c2.4,1.6,4.2,3.7,5.3,6.5
			c1.1,2.8,1.7,7,1.7,12.7v24.6h-5.9v-24.6c0-4.9-0.3-8.1-1-9.9s-1.8-3.3-3.5-4.4c-1.7-1.1-3.6-1.7-6-1.7c-2.8,0-5.4,0.8-7.7,2.5
			c-2.2,1.7-4,3.9-5.1,6.7c-1,2.7-1.6,7.4-1.6,13.8v17.6h-5.8v-23.1c0-5.4-0.3-9.2-1-11.1c-0.7-1.9-1.8-3.5-3.5-4.6
			c-1.7-1.1-3.7-1.8-6-1.8c-2.7,0-5.2,0.8-7.5,2.4c-2.4,1.6-4,3.9-5.2,6.5c-1.1,2.7-1.7,6.9-1.7,12.5v19.1h-5.6v-45H1467.5
			L1467.5,245.7z"/>
		<path class="st0" d="M1549.3,245.7h5.8v8.2c2.2-3.2,5-5.6,7.9-7.1s6.3-2.4,9.9-2.4c6.4,0,11.8,2.2,16.4,6.9
			c4.5,4.6,6.8,10.2,6.8,16.6c0,6.7-2.2,12.2-6.8,16.8s-9.9,6.9-16.3,6.9c-3.6,0-6.9-0.8-9.8-2.2c-3.1-1.5-5.8-3.7-8.1-6.7v24.2
			h-5.8L1549.3,245.7L1549.3,245.7z M1572.4,250.1c-5,0-9.3,1.7-12.7,5.2c-3.4,3.5-5.2,7.9-5.2,13.1c0,3.4,0.8,6.4,2.2,9.3
			c1.6,2.7,3.7,4.9,6.5,6.4c2.8,1.6,5.9,2.4,9,2.4c3.2,0,6-0.8,8.8-2.4c2.7-1.6,5-3.9,6.5-6.8c1.6-2.9,2.5-5.9,2.5-9.2
			c0-3.2-0.8-6.2-2.4-9.2c-1.6-2.8-3.7-5.1-6.5-6.7C1578.7,250.9,1575.7,250.1,1572.4,250.1z"/>
		<path class="st0" d="M1630.6,244.6c6.9,0,12.7,2.5,17.3,7.6c4.2,4.6,6.2,10,6.2,16.3c0,6.3-2.1,11.7-6.5,16.5s-10,7-17,7
			c-6.9,0-12.5-2.4-17-7c-4.4-4.7-6.5-10.2-6.5-16.5c0-6.2,2-11.7,6.2-16.3C1617.9,247,1623.6,244.6,1630.6,244.6z M1630.6,250.2
			c-4.9,0-8.9,1.8-12.4,5.3c-3.5,3.6-5.2,7.9-5.2,12.9c0,3.3,0.8,6.3,2.4,9.2c1.6,2.8,3.7,5,6.4,6.5c2.7,1.6,5.7,2.2,8.8,2.2
			c3.2,0,6.2-0.8,8.8-2.2c2.7-1.6,4.9-3.7,6.4-6.5s2.4-5.9,2.4-9.2c0-5.1-1.7-9.4-5.2-12.9C1639.5,252,1635.3,250.2,1630.6,250.2z"
			/>
		<path class="st0" d="M1689.6,250.6l-3.8,3.9c-3.1-3.1-6.1-4.5-9-4.5c-1.9,0-3.5,0.6-4.9,1.8c-1.4,1.2-2,2.7-2,4.3
			c0,1.5,0.6,2.8,1.7,4.2s3.4,2.9,7,4.7c4.3,2.2,7.2,4.4,8.8,6.4c1.5,2.1,2.2,4.4,2.2,7.1c0,3.7-1.4,6.8-3.9,9.4
			c-2.6,2.6-5.9,3.9-9.7,3.9c-2.6,0-5.1-0.6-7.5-1.7c-2.4-1.1-4.3-2.7-5.9-4.6l3.6-4.2c2.9,3.4,6.1,5,9.4,5c2.4,0,4.3-0.8,6-2.2
			c1.6-1.5,2.5-3.3,2.5-5.3c0-1.7-0.6-3.2-1.6-4.4c-1.1-1.2-3.5-2.8-7.4-4.9c-4-2.1-6.8-4.2-8.2-6.2s-2.1-4.4-2.1-7
			c0-3.4,1.1-6.2,3.5-8.5c2.4-2.2,5.3-3.4,8.8-3.4C1681.3,244.6,1685.4,246.6,1689.6,250.6z"/>
		<path class="st0" d="M1724.8,250.6l-3.7,3.9c-3.1-3.1-6.1-4.5-9-4.5c-1.9,0-3.5,0.6-4.9,1.8c-1.4,1.2-2,2.7-2,4.3
			c0,1.5,0.6,2.8,1.7,4.2c1.1,1.4,3.4,2.9,7,4.7c4.3,2.2,7.2,4.4,8.8,6.4c1.5,2.1,2.2,4.4,2.2,7.1c0,3.7-1.4,6.8-3.9,9.4
			c-2.6,2.6-5.9,3.9-9.7,3.9c-2.6,0-5.1-0.6-7.5-1.7c-2.4-1.1-4.3-2.7-5.9-4.6l3.6-4.2c2.9,3.4,6.1,5,9.4,5c2.4,0,4.3-0.8,6-2.2
			c1.6-1.5,2.5-3.3,2.5-5.3c0-1.7-0.6-3.2-1.6-4.4c-1.1-1.2-3.5-2.8-7.4-4.9c-4-2.1-6.8-4.2-8.2-6.2s-2.1-4.4-2.1-7
			c0-3.4,1.1-6.2,3.5-8.5c2.4-2.2,5.3-3.4,8.8-3.4C1716.3,244.6,1720.5,246.6,1724.8,250.6z"/>
		<path class="st0" d="M1739.3,227.2c1.4,0,2.5,0.4,3.4,1.4c0.9,0.9,1.4,2,1.4,3.4c0,1.2-0.4,2.4-1.4,3.4c-0.9,0.9-2,1.4-3.4,1.4
			c-1.2,0-2.4-0.4-3.4-1.4c-0.9-0.9-1.4-2-1.4-3.4c0-1.4,0.4-2.5,1.4-3.4C1736.8,227.6,1737.9,227.2,1739.3,227.2z M1736.3,245.7
			h5.8v45.1h-5.8V245.7z"/>
		<path class="st0" d="M1756.8,290.7v-62.4h5.8v25.1c2.4-2.9,5.2-5.2,8.1-6.7s6.3-2.2,9.8-2.2c6.3,0,11.7,2.2,16.3,6.9
			c4.5,4.6,6.8,10.3,6.8,16.8c0,6.5-2.2,12.1-6.8,16.7c-4.5,4.6-10,6.9-16.4,6.9c-3.6,0-7-0.8-9.9-2.4c-2.9-1.6-5.7-3.9-7.9-7.1v8.2
			h-5.8L1756.8,290.7L1756.8,290.7z M1779.9,286.3c3.3,0,6.2-0.8,8.9-2.4c2.7-1.6,4.9-3.9,6.5-6.7c1.6-2.8,2.4-5.9,2.4-9.2
			c0-3.3-0.8-6.2-2.5-9.2c-1.6-2.9-3.9-5.2-6.5-6.8c-2.7-1.6-5.7-2.4-8.8-2.4s-6.2,0.8-9,2.4c-2.8,1.6-5.1,3.9-6.5,6.5
			c-1.6,2.7-2.2,5.8-2.2,9.3c0,5.2,1.7,9.6,5.2,13.1C1770.7,284.6,1775,286.3,1779.9,286.3z"/>
		<path class="st0" d="M1815.5,228.3h5.8v62.4h-5.8V228.3z"/>
		<path class="st0" d="M1873.5,275.8l4.9,2.6c-1.6,3.2-3.5,5.7-5.6,7.6c-2.1,1.9-4.4,3.4-7.1,4.4c-2.6,1-5.7,1.5-8.9,1.5
			c-7.4,0-13.1-2.4-17.3-7.2c-4.2-4.9-6.2-10.3-6.2-16.4c0-5.8,1.8-10.9,5.3-15.3c4.4-5.7,10.4-8.5,17.8-8.5
			c7.7,0,13.8,2.9,18.4,8.7c3.3,4,5,9.3,5,15.4h-40.6c0.1,5.2,1.8,9.5,5,12.9c3.2,3.4,7.2,5,12,5c2.2,0,4.5-0.4,6.7-1.2
			c2.1-0.8,4-1.8,5.6-3.2C1870.1,280.8,1871.8,278.7,1873.5,275.8z M1873.5,263.7c-0.8-3.1-1.9-5.6-3.4-7.5
			c-1.5-1.8-3.4-3.4-5.9-4.5c-2.5-1.1-5-1.7-7.7-1.7c-4.4,0-8.2,1.5-11.4,4.3c-2.4,2-4,5.2-5.3,9.3h33.7L1873.5,263.7L1873.5,263.7z
			"/>
		<path class="st1" d="M1954.7,245.7v5c2-2,4.3-3.6,6.7-4.6s4.9-1.6,7.6-1.6c5.9,0,10.9,2.2,15,6.7c4,4.4,6.2,10.2,6.2,17.1
			c0,6.7-2.1,12.3-6.3,16.8c-4.3,4.5-9.3,6.8-15.2,6.8c-2.6,0-5-0.4-7.2-1.4s-4.4-2.5-6.7-4.5v21.3h-11.2v-61.5H1954.7z M1966.6,255
			c-3.6,0-6.5,1.2-8.8,3.6c-2.4,2.4-3.5,5.7-3.5,9.5c0,3.9,1.1,7.2,3.5,9.7c2.4,2.5,5.3,3.7,8.8,3.7s6.3-1.2,8.7-3.7
			c2.4-2.5,3.5-5.8,3.5-9.6s-1.1-7-3.5-9.5C1973.1,256.2,1970.1,255,1966.6,255z"/>
		<path class="st1" d="M2022.9,244.6c4.3,0,8.2,1,12,3.2c3.7,2.1,6.7,5,8.7,8.7c2.1,3.6,3.2,7.6,3.2,11.7c0,4.3-1,8.2-3.2,12
			c-2.1,3.7-5,6.5-8.6,8.7c-3.6,2.1-7.7,3.2-12.1,3.2c-6.4,0-12-2.2-16.5-6.9c-4.5-4.6-6.9-10.2-6.9-16.7c0-7,2.6-12.9,7.8-17.6
			C2011.8,246.6,2017,244.6,2022.9,244.6z M2023,255.2c-3.5,0-6.4,1.2-8.8,3.6c-2.4,2.5-3.5,5.6-3.5,9.4c0,3.9,1.1,7.1,3.5,9.5
			c2.2,2.4,5.2,3.6,8.8,3.6c3.5,0,6.4-1.2,8.8-3.7s3.5-5.7,3.5-9.5c0-3.9-1.1-7-3.5-9.4C2029.6,256.3,2026.6,255.2,2023,255.2z"/>
		<path class="st1" d="M2085.7,252l-7,7c-2.8-2.8-5.4-4.2-7.8-4.2c-1.2,0-2.2,0.2-2.9,0.8c-0.7,0.6-1.1,1.2-1.1,2
			c0,0.6,0.2,1.1,0.7,1.7c0.4,0.6,1.6,1.2,3.4,2.1l4.2,2c4.4,2.1,7.4,4.3,9,6.5c1.6,2.2,2.5,4.9,2.5,7.9c0,3.9-1.5,7.4-4.4,10
			c-2.9,2.7-6.9,4-11.8,4c-6.5,0-11.8-2.6-15.7-7.7l7-7.6c1.4,1.6,2.8,2.8,4.6,3.7c1.8,0.9,3.4,1.5,4.7,1.5c1.5,0,2.7-0.3,3.6-1.1
			c0.9-0.7,1.4-1.6,1.4-2.5c0-1.7-1.7-3.4-5-5.1l-3.9-1.9c-7.2-3.6-11-8.2-11-13.8c0-3.6,1.4-6.5,4-9.2c2.7-2.5,6.2-3.9,10.5-3.9
			c2.9,0,5.7,0.7,8.2,1.9C2081.8,247.7,2084,249.5,2085.7,252z"/>
		<path class="st1" d="M2125.3,252l-7,7c-2.8-2.8-5.4-4.2-7.8-4.2c-1.2,0-2.2,0.2-2.9,0.8c-0.7,0.6-1.1,1.2-1.1,2
			c0,0.6,0.2,1.1,0.7,1.7c0.4,0.6,1.6,1.2,3.4,2.1l4.2,2c4.4,2.1,7.4,4.3,9,6.5c1.6,2.2,2.5,4.9,2.5,7.9c0,3.9-1.5,7.4-4.4,10
			c-2.9,2.7-6.9,4-11.8,4c-6.5,0-11.8-2.6-15.7-7.7l7-7.6c1.4,1.6,2.8,2.8,4.6,3.7c1.8,0.9,3.4,1.5,4.7,1.5c1.5,0,2.7-0.3,3.6-1.1
			c0.9-0.7,1.4-1.6,1.4-2.5c0-1.7-1.7-3.4-5-5.1l-3.9-1.9c-7.2-3.6-11-8.2-11-13.8c0-3.6,1.4-6.5,4-9.2c2.7-2.5,6.2-3.9,10.5-3.9
			c2.9,0,5.7,0.7,8.2,1.9C2121.3,247.7,2123.5,249.5,2125.3,252z"/>
		<path class="st1" d="M2141.7,227.2c2,0,3.7,0.7,5.1,2.1c1.5,1.5,2.1,3.2,2.1,5.2c0,2-0.7,3.7-2.1,5.2c-1.4,1.5-3.1,2.1-5.1,2.1
			c-2,0-3.7-0.7-5.1-2.1s-2.1-3.2-2.1-5.3c0-2,0.7-3.7,2.1-5.1C2138,227.8,2139.6,227.2,2141.7,227.2z M2136,245.7h11.3v45.1H2136
			V245.7z"/>
		<path class="st1" d="M2170.9,228.3v22.4c2-2,4.3-3.6,6.7-4.6c2.4-1,4.9-1.6,7.6-1.6c5.9,0,10.9,2.2,15,6.7
			c4,4.4,6.2,10.2,6.2,17.1c0,6.7-2.1,12.3-6.3,16.8c-4.3,4.5-9.3,6.8-15.2,6.8c-2.6,0-5-0.4-7.2-1.4s-4.4-2.5-6.7-4.5v4.7h-11.2
			v-62.4L2170.9,228.3L2170.9,228.3z M2182.9,255c-3.6,0-6.5,1.2-8.8,3.6c-2.4,2.4-3.5,5.7-3.5,9.5c0,3.9,1.1,7.2,3.5,9.7
			c2.4,2.5,5.3,3.7,8.8,3.7s6.3-1.2,8.7-3.7c2.4-2.5,3.5-5.8,3.5-9.6s-1.1-7-3.5-9.5C2189.3,256.2,2186.4,255,2182.9,255z"/>
		<path class="st1" d="M2222.3,227.2c2,0,3.7,0.7,5.1,2.1c1.5,1.5,2.1,3.2,2.1,5.2c0,2-0.7,3.7-2.1,5.2c-1.4,1.5-3.1,2.1-5.1,2.1
			c-2,0-3.7-0.7-5.1-2.1c-1.4-1.5-2.1-3.3-2.1-5.4c0-2,0.7-3.7,2.1-5.1C2218.6,227.8,2220.3,227.2,2222.3,227.2z M2216.7,245.7h11.3
			v45.1h-11.3V245.7z"/>
		<path class="st1" d="M2239.2,228.3h11.3v62.4h-11.3V228.3z"/>
		<path class="st1" d="M2267.4,227.2c2,0,3.7,0.7,5.1,2.1c1.5,1.5,2.1,3.2,2.1,5.2c0,2-0.7,3.7-2.1,5.2c-1.4,1.5-3.1,2.1-5.1,2.1
			c-2,0-3.7-0.7-5.1-2.1c-1.4-1.5-2.1-3.2-2.1-5.3c0-2,0.7-3.7,2.1-5.1C2263.7,227.8,2265.4,227.2,2267.4,227.2z M2261.8,245.7h11.3
			v45.1h-11.3V245.7z"/>
		<path class="st1" d="M2286.9,229.1h11.3v16.6h6.7v9.7h-6.7v35.4h-11.3v-35.4h-5.8v-9.7h5.8V229.1z"/>
		<path class="st1" d="M2317.6,227.2c2,0,3.7,0.7,5.1,2.1c1.5,1.5,2.1,3.2,2.1,5.2c0,2-0.7,3.7-2.1,5.2c-1.4,1.5-3.1,2.1-5.1,2.1
			c-2,0-3.7-0.7-5.1-2.1c-1.4-1.5-2.1-3.2-2.1-5.3c0-2,0.7-3.7,2.1-5.1C2313.9,227.8,2315.6,227.2,2317.6,227.2z M2311.9,245.7h11.3
			v45.1h-11.3V245.7z"/>
		<path class="st1" d="M2380.8,271.5h-36.3c0.6,3.2,1.9,5.8,4.2,7.7c2.2,1.9,5.2,2.8,8.7,2.8c4.2,0,7.8-1.5,10.9-4.4l9.5,4.5
			c-2.4,3.4-5.2,5.9-8.5,7.5c-3.3,1.6-7.2,2.4-11.7,2.4c-7.1,0-12.8-2.2-17.3-6.7c-4.4-4.4-6.7-10-6.7-16.7c0-6.9,2.2-12.5,6.7-17.1
			c4.4-4.5,9.9-6.8,16.6-6.8c7.1,0,12.9,2.2,17.3,6.8c4.4,4.5,6.7,10.5,6.7,18L2380.8,271.5z M2369.5,262.5
			c-0.8-2.5-2.2-4.5-4.4-6.1c-2.1-1.6-4.7-2.4-7.7-2.4c-3.2,0-5.9,0.9-8.2,2.6c-1.5,1.1-2.8,3.1-4.2,5.9
			C2344.9,262.5,2369.5,262.5,2369.5,262.5z"/>
		<path class="st1" d="M2419.8,252l-7,7c-2.8-2.8-5.4-4.2-7.8-4.2c-1.2,0-2.2,0.2-2.9,0.8c-0.7,0.6-1.1,1.2-1.1,2
			c0,0.6,0.2,1.1,0.7,1.7c0.4,0.6,1.6,1.2,3.4,2.1l4.2,2c4.4,2.1,7.4,4.3,9,6.5c1.6,2.2,2.5,4.9,2.5,7.9c0,3.9-1.5,7.4-4.4,10
			c-2.9,2.7-6.9,4-11.8,4c-6.5,0-11.8-2.6-15.7-7.7l7-7.6c1.4,1.6,2.8,2.8,4.6,3.7c1.8,0.9,3.4,1.5,4.7,1.5c1.5,0,2.7-0.3,3.6-1.1
			c0.9-0.7,1.4-1.6,1.4-2.5c0-1.7-1.7-3.4-5-5.1l-3.9-1.9c-7.4-3.9-11-8.5-11-14c0-3.6,1.4-6.5,4-9.2c2.7-2.5,6.2-3.9,10.5-3.9
			c2.9,0,5.7,0.7,8.2,1.9C2415.8,247.7,2418,249.5,2419.8,252z"/>
	</g>
	<g>
		<polyline class="st2" points="1909.9,228.5 1906.3,228.5 1906.3,306.6 1909.9,306.6 		"/>
		<polyline class="st3" points="1909.9,306.6 1913.5,306.6 1913.5,228.5 1909.9,228.5 		"/>
	</g>
</g>
<text transform="matrix(1 0 0 1 2950.2317 220.1327)" class="st1" style="font-family:'ArialMT'; font-size:46px;">®</text>
</svg>
