<?xml version="1.0" encoding="utf-8"?>
<!-- Generator: Adobe Illustrator 19.1.1, SVG Export Plug-In . SVG Version: 6.00 Build 0)  -->
<!DOCTYPE svg PUBLIC "-//W3C//DTD SVG 1.1//EN" "http://www.w3.org/Graphics/SVG/1.1/DTD/svg11.dtd">
<svg version="1.1" id="Layer_1" xmlns="http://www.w3.org/2000/svg" xmlns:xlink="http://www.w3.org/1999/xlink" x="0px" y="0px"
	 viewBox="70.9 78 342 46" style="enable-background:new 70.9 78 342 46;" xml:space="preserve">
<style type="text/css">
	.st0{fill:#3BB0C9;}
	.st1{fill:#4B4F54;}
</style>
<g>
	<path class="st0" d="M133.4,94.9c1.8-3.4,4.6-4.6,7.9-4.6c1.8,0,3.7,0.1,5.4,0.6c3.5,0.9,5.4,3.5,5.9,7c0.2,1.5,0.2,3,0.2,4.6
		c0,4.8,0,9.6,0,14.5c0,1.5-0.4,1.8-2,1.8c-1.8,0-2.2-0.3-2.2-1.8c0-5.2,0-10.4,0-15.6c0-0.5,0-1.1,0-1.6c-0.2-3.5-2.1-5.3-5.6-5.4
		c-0.9,0-1.7-0.1-2.6,0.1c-3.4,0.5-4.9,2.2-4.9,5.8c0,5.6,0,16.9,0,16.9c0,1.5-1.1,1.7-1.1,1.7h-2c-0.9-0.1-1-1-1-1.8
		c0-5.1,0-10.1,0-15.2c0-0.7,0-1.4,0-2.1c-0.1-3.2-1.8-5.1-5-5.3c-1.4-0.1-2.7,0-4.1,0.2c-2.1,0.3-3.6,2-3.8,4.2
		c-0.1,1.1-0.2,2.3-0.2,3.4c0,4.9,0,10.1,0,15c0,1.7-0.3,1.6-2,1.6c-1.8,0-2.2-0.1-2.2-1.6c0-5.4-0.1-11.1,0-16.6
		c0-3.2,0.7-6.3,3.5-8.2c1.4-0.9,3.1-1.6,4.7-1.8c1.9-0.3,4-0.2,5.9,0.1C130.4,91,132.2,92.4,133.4,94.9"/>
	<path class="st0" d="M181,100.6c0-4.1-2.4-5.6-5.5-6c-1.9-0.3-3.9-0.3-5.8-0.1c-3.4,0.4-5.1,1.9-5.4,5.3c-0.3,3.3-0.2,6.6,0,9.9
		c0.2,2.7,1.7,4.7,4.5,5.2c1.9,0.3,4,0.5,5.9,0.2c3.7-0.5,5.7-1.7,6.3-6.4C181,108.7,181.1,101.9,181,100.6 M164.1,93.4
		c1.6-2,3.6-2.7,6-2.9c2.2-0.2,4.5-0.3,6.6,0.1c4.2,0.7,6.8,3.4,7.5,7.5c0.8,4.4,0.8,8.8,0,13.2c-0.7,4-3.3,6.5-7.3,7.4
		c-3.1,0.7-6.3,0.8-9.4,0c-4.6-1.2-7.5-4.7-7.5-9.5c-0.1-9.5-0.1-19.1-0.1-28.6c0-1.3,0.4-1.6,2-1.6c1.7,0,2.2,0.3,2.2,1.8
		c0,3.9,0,7.8,0,11.8V93.4"/>
	<path class="st0" d="M223.3,102.7c-0.1-1.3-0.1-2.5-0.3-3.8c-0.3-2.1-1.5-3.7-3.6-4.2c-1.7-0.4-3.5-0.7-5.3-0.6
		c-4.6,0.3-6.3,3.1-6,8.6H223.3z M208.1,106.3v3.5c0.6,3.5,2.7,5.2,6.8,5.4c3.3,0.2,6.5-0.2,9.6-1c1.3-0.3,1.7,0,1.8,1.3
		c0.1,1.9-0.1,2.3-2,2.8c-3.9,1.1-8,1.2-12,0.5c-5.1-0.8-8-3.7-8.5-9.2c-0.3-3.4-0.3-7,0.1-10.4c0.7-5.7,4.2-8.8,9.9-9
		c2.2-0.1,4.4,0.1,6.5,0.6c4.2,1.1,6.7,4.7,6.8,9.4c0.1,1.4-0.1,2.9-0.2,4.3c0,1.3-0.7,1.7-1.9,1.7c-3.6,0-7.2,0-10.8,0
		C212.2,106.3,210.3,106.3,208.1,106.3"/>
	<path class="st0" d="M90.3,108.1c0-2.6,0.1-5.2,0-7.8c-0.1-3.9-1.3-5.4-5.2-5.9c-1.9-0.3-3.8-0.1-5.7,0.2c-2.9,0.6-4.2,2.5-4.2,6
		c0,4.8,0,16,0,16.4c0,1.4-1,1.8-3.3,1.6c-0.8-0.3-1-0.9-1-1.7c0-2.9,0-5.7,0-8.6c0-3.1-0.1-6.2,0.2-9.3c0.5-4.9,2.8-7.5,7.6-8.5
		c3.2-0.7,6.4-0.6,9.5,0.3c3.6,1.1,6.2,4.1,6.4,7.9V117c0,1.4-0.4,1.6-2.1,1.6c-1.8,0-2.2-0.2-2.2-1.7
		C90.3,114.1,90.4,111.1,90.3,108.1L90.3,108.1z"/>
	<path class="st0" d="M191,96.5c0-5.2,0-10.3,0-15.5c0-1.6,0.4-2,2.2-2c1.7,0,2.1,0.4,2.1,1.9c0,9.7,0,19.4,0,29c0,0.7,0,1.3,0.1,2
		c0.3,2.2,1.1,3.2,3.3,3c0.9-0.1,1.5,0.3,1.5,1.4c0,1.8-0.1,2.3-1.3,2.5c-4.5,0.6-7.8-2-7.8-6.8C190.9,106.9,191,101.7,191,96.5"/>
	<path class="st0" d="M106.3,104.8c0,4,0.1,8.3,0,12.3c0,0.6-0.1,1.7-1,1.6h-2.6c-0.8-0.1-0.7-1-0.7-1.6c0-7,0-23.5,0-24.5
		c0-1.5,0.4-1.8,2.2-1.8c1.7,0,2,0.3,2,1.8C106.4,96.6,106.3,100.7,106.3,104.8"/>
	<path class="st0" d="M238.8,116.2c0,1.7-1.3,3-2.9,3c-1.7,0-3-1.3-3-3.1c0-1.7,1.3-3,3-3C237.5,113.2,238.8,114.5,238.8,116.2"/>
	<path class="st0" d="M107,82.1c0,1.5-1.3,2.7-2.7,2.7c-1.6,0-2.8-1.2-2.8-2.8c0-1.5,1.3-2.7,2.8-2.7C105.7,79.2,107,80.5,107,82.1"
		/>
	<path class="st1" d="M255.2,114.3c0.5-2.1-0.8-3.2-2.5-3.2c-1.8,0-3.4,1.2-3.7,3.5c-0.4,2.2,0.8,3.4,2.6,3.4c1.7,0,3.1-1.1,3.6-3.2
		L255.2,114.3z M257.3,117.7l-0.2,0.9c-0.2,0.1-0.6,0.3-1.1,0.3c-0.9,0-1.5-0.6-1.5-1.4c-0.7,0.8-1.7,1.4-3.1,1.4
		c-2.3,0-3.8-1.6-3.4-4.3c0.4-2.6,2.4-4.2,4.6-4.2c1.6,0,2.7,0.8,3,1.7l0.3-1.6h0.9l-1.4,6.5c-0.1,0.7,0.1,1,0.7,1
		C256.7,118,257,117.9,257.3,117.7"/>
	<path class="st1" d="M270,114.3c0.5-2.1-0.8-3.2-2.5-3.2c-1.8,0-3.4,1.2-3.7,3.5c-0.4,2.2,0.8,3.4,2.6,3.4c1.7,0,3.1-1.1,3.6-3.2
		V114.3z M270.3,117c-0.1,0.7,0.1,1,0.7,1c0.4,0,0.8-0.1,1.1-0.3l-0.2,0.9c-0.2,0.1-0.6,0.3-1.1,0.3c-0.9,0-1.4-0.5-1.4-1.4
		c-0.7,0.9-1.7,1.4-3.2,1.4c-2.3,0-3.8-1.6-3.4-4.3c0.4-2.6,2.4-4.2,4.6-4.2c1.6,0,2.7,0.8,3,1.7l1.3-6.3h0.9L270.3,117z"/>
	<path class="st1" d="M274.7,114.3L274.7,114.3c4,0,5.6-0.5,5.6-1.7c0-0.9-0.8-1.4-2-1.4C276.7,111.2,275.2,112.3,274.7,114.3
		 M274.6,115.1c-0.2,2,1.1,3,2.8,3c1.3,0,2.2-0.4,2.9-0.9l-0.2,1c-0.8,0.5-1.6,0.7-2.7,0.7c-2.4,0-4.1-1.6-3.6-4.3
		c0.4-2.7,2.4-4.2,4.6-4.2c1.8,0,2.9,1,2.9,2.2c0,1.8-1.8,2.5-6.4,2.5H274.6z"/>
	<path class="st1" d="M288.1,111l-0.2,0.9c-0.5-0.4-1-0.6-1.9-0.7c-1.2,0-1.9,0.5-2.1,1.4c-0.2,1,0.5,1.1,1.7,1.6
		c1.5,0.5,2.4,0.9,2.2,2.4c-0.2,1.6-1.7,2.4-3.3,2.4c-1.1,0-1.8-0.2-2.5-0.7l0.2-0.8c0.7,0.4,1.3,0.7,2.4,0.7c1.1,0,2.2-0.5,2.4-1.6
		c0.1-1-0.4-1.1-1.8-1.6s-2.4-0.9-2.1-2.4c0.2-1.3,1.3-2.1,2.9-2.1C286.9,110.4,287.5,110.6,288.1,111"/>
	<path class="st1" d="M293.4,107.3c-0.1,0.5-0.5,0.9-1,0.9c-0.6,0-0.9-0.4-0.8-1c0.1-0.5,0.5-0.9,1-0.9
		C293.1,106.3,293.5,106.7,293.4,107.3 M290.8,117c-0.1,0.7,0.1,1,0.7,1c0.4,0,0.8-0.1,1.1-0.3l-0.2,0.9c-0.2,0.1-0.6,0.3-1.1,0.3
		c-1,0-1.6-0.7-1.4-1.8l1.4-6.6h0.9L290.8,117z"/>
	<path class="st1" d="M295.1,114.7c-0.4,2.2,0.8,3.4,2.6,3.4c1.7,0,3.1-1.1,3.6-3.2l0.1-0.6c0.5-2.1-0.8-3.1-2.5-3.1
		C297,111.2,295.4,112.4,295.1,114.7 M301.8,112.1l0.3-1.6h0.9l-1.8,8.4c-0.6,2.7-2.7,4.1-4.9,4.1c-1.4,0-2.2-0.3-2.8-0.8l0.2-0.9
		c0.6,0.5,1.3,0.9,2.7,0.9c1.7,0,3.5-1.1,4-3.3l0.3-1.5c-0.6,0.9-1.7,1.5-3.2,1.5c-2.3,0-3.8-1.6-3.4-4.3c0.4-2.6,2.4-4.2,4.6-4.2
		C300.3,110.4,301.5,111.2,301.8,112.1"/>
	<path class="st1" d="M312.1,113.7l-0.7,3.4c-0.1,0.7,0.1,1,0.7,1c0.4,0,0.7-0.1,1.1-0.3l-0.2,0.9c-0.2,0.1-0.6,0.3-1.1,0.3
		c-1,0-1.6-0.7-1.4-1.8l0.7-3.3c0.3-1.5-0.4-2.6-1.8-2.6c-1.5,0-2.8,1.2-3.1,2.6l-1.1,4.9h-0.9l1.7-8.2h0.9l-0.3,1.3
		c0.5-0.7,1.5-1.4,2.9-1.4C311.4,110.4,312.6,111.7,312.1,113.7"/>
	<path class="st1" d="M326,112.2c-0.1,0.4-0.4,0.8-0.9,0.8s-0.9-0.4-0.8-1c0-0.2,0.1-0.4,0.3-0.6c-0.3-0.2-0.7-0.3-1.3-0.3
		c-1.7,0-3.2,1.2-3.6,3.5c-0.4,2.3,0.9,3.4,2.7,3.4c1.1,0,1.9-0.4,2.6-0.9l-0.2,1c-0.7,0.4-1.4,0.7-2.5,0.7c-2.3,0-4-1.6-3.5-4.3
		c0.4-2.7,2.4-4.2,4.4-4.2c1.1,0,1.8,0.3,2.3,0.8C325.9,111.5,326,111.7,326,112.2"/>
	<path class="st1" d="M328,114.7c-0.3,2.1,0.9,3.4,2.7,3.4c1.8,0,3.5-1.3,3.8-3.5c0.3-2.1-0.9-3.4-2.7-3.4
		C329.9,111.2,328.2,112.5,328,114.7 M335.3,114.7c-0.4,2.6-2.4,4.2-4.7,4.2c-2.4,0-4-1.7-3.6-4.3c0.4-2.6,2.4-4.2,4.7-4.2
		C334.1,110.4,335.7,112,335.3,114.7"/>
	<path class="st1" d="M344.8,113.7L344,117c-0.1,0.7,0.1,1,0.7,1c0.4,0,0.7-0.1,1.1-0.3l-0.2,0.9c-0.2,0.1-0.6,0.3-1.1,0.3
		c-1,0-1.6-0.7-1.4-1.8l0.7-3.3c0.3-1.5-0.4-2.6-1.8-2.6c-1.5,0-2.8,1.2-3.1,2.6l-1.1,4.9h-0.9l1.7-8.2h0.9l-0.3,1.3
		c0.5-0.7,1.5-1.4,2.9-1.4C344,110.4,345.2,111.7,344.8,113.7"/>
	<path class="st1" d="M352.9,111l-0.2,0.9c-0.5-0.4-1-0.6-1.9-0.7c-1.2,0-1.9,0.5-2.1,1.4c-0.2,1,0.5,1.1,1.7,1.6
		c1.5,0.5,2.4,0.9,2.2,2.4c-0.2,1.6-1.7,2.4-3.3,2.4c-1.1,0-1.8-0.2-2.5-0.7l0.2-0.8c0.7,0.4,1.3,0.7,2.4,0.7s2.2-0.5,2.4-1.6
		c0.1-1-0.4-1.1-1.8-1.6s-2.4-0.9-2.1-2.4c0.2-1.3,1.3-2.1,2.9-2.1C351.7,110.4,352.3,110.6,352.9,111"/>
	<path class="st1" d="M363.2,117.7l-0.2,0.9c-0.2,0.1-0.6,0.3-1.1,0.3c-0.9,0-1.5-0.5-1.5-1.4c-0.6,0.7-1.5,1.4-2.8,1.4
		c-1.8,0-3.1-1.3-2.6-3.3l1.1-5.1h0.9l-1,5c-0.4,1.6,0.4,2.5,1.8,2.5c1.5,0,2.8-1.2,3.1-2.6l1-4.9h0.9l-1.4,6.5
		c-0.1,0.7,0.1,1,0.7,1C362.5,118,362.9,117.9,363.2,117.7"/>
	<path class="st1" d="M365.8,117c-0.1,0.7,0.1,1,0.7,1c0.4,0,0.8-0.1,1.1-0.3l-0.2,0.9c-0.2,0.1-0.6,0.3-1.1,0.3
		c-1,0-1.6-0.7-1.4-1.8l2.4-11.3h0.9L365.8,117z"/>
	<path class="st1" d="M370.9,116.5c-0.2,1.1,0.2,1.5,1,1.5c0.7,0,1.2-0.2,1.8-0.6l-0.2,0.9c-0.6,0.4-1.1,0.5-1.7,0.5
		c-1.3,0-2-0.8-1.7-2.4l1.1-5.2H369l0.2-0.8h2.2l0.7-3.1h0.9l-0.7,3.1h2.9l-0.2,0.8h-2.9L370.9,116.5z"/>
	<path class="st1" d="M382.5,114.3c0.5-2.1-0.8-3.2-2.5-3.2c-1.8,0-3.4,1.2-3.7,3.5c-0.4,2.2,0.8,3.4,2.6,3.4c1.7,0,3.1-1.1,3.6-3.2
		V114.3z M384.6,117.7l-0.2,0.9c-0.2,0.1-0.6,0.3-1.1,0.3c-0.9,0-1.5-0.6-1.5-1.4c-0.7,0.8-1.7,1.4-3.2,1.4c-2.3,0-3.8-1.6-3.4-4.3
		c0.4-2.6,2.4-4.2,4.6-4.2c1.6,0,2.7,0.8,3,1.7l0.3-1.6h0.9l-1.4,6.5c-0.1,0.7,0.1,1,0.7,1C384,118,384.3,117.9,384.6,117.7"/>
	<path class="st1" d="M393.8,113.7L393,117c-0.1,0.7,0.1,1,0.7,1c0.4,0,0.7-0.1,1.1-0.3l-0.2,0.9c-0.2,0.1-0.6,0.3-1.1,0.3
		c-1,0-1.6-0.7-1.4-1.8l0.7-3.3c0.3-1.5-0.4-2.6-1.8-2.6c-1.5,0-2.8,1.2-3.1,2.6l-1.1,4.9h-0.9l1.7-8.2h0.9l-0.3,1.3
		c0.5-0.7,1.5-1.4,2.9-1.4C393,110.4,394.2,111.7,393.8,113.7"/>
	<path class="st1" d="M403.6,112.2c-0.1,0.4-0.4,0.8-0.9,0.8s-0.9-0.4-0.8-1c0-0.2,0.1-0.4,0.3-0.6c-0.3-0.2-0.7-0.3-1.3-0.3
		c-1.7,0-3.2,1.2-3.6,3.5c-0.4,2.3,0.9,3.4,2.7,3.4c1.1,0,1.9-0.4,2.6-0.9l-0.2,1c-0.7,0.4-1.4,0.7-2.5,0.7c-2.3,0-4-1.6-3.5-4.3
		c0.4-2.7,2.4-4.2,4.4-4.2c1.1,0,1.8,0.3,2.3,0.8C403.5,111.5,403.7,111.7,403.6,112.2"/>
	<path class="st1" d="M411,119.2c-0.5,2.3-2.3,3.8-4.4,3.8c-1.2,0-2-0.3-2.6-0.7l0.2-0.9c0.6,0.5,1.2,0.8,2.4,0.8
		c1.6,0,3-1.1,3.5-3.1l0.3-1.5c-0.5,0.7-1.5,1.3-2.8,1.3c-1.8,0-3.1-1.3-2.6-3.3l1.1-5h0.9l-1,5c-0.4,1.6,0.4,2.5,1.8,2.5
		c1.5,0,2.8-1.2,3.1-2.6l1-4.9h0.9L411,119.2z"/>
</g>
</svg>
