<?xml version="1.0" encoding="utf-8"?>
<!-- Generator: Adobe Illustrator 19.1.1, SVG Export Plug-In . SVG Version: 6.00 Build 0)  -->
<!DOCTYPE svg PUBLIC "-//W3C//DTD SVG 1.1//EN" "http://www.w3.org/Graphics/SVG/1.1/DTD/svg11.dtd">
<svg version="1.1" id="Layer_1" xmlns="http://www.w3.org/2000/svg" xmlns:xlink="http://www.w3.org/1999/xlink" x="0px" y="0px"
	 viewBox="0 0 237 34" style="enable-background:new 0 0 237 34;" xml:space="preserve">
<style type="text/css">
	.st0{fill:none;}
</style>
<g>
	<path d="M9.5,31.2H0.7V2.8h11.6c2.8,0,5.9,0.1,8.3,1.5c2.7,1.6,4.2,4.4,4.2,7.5c0,2.7-1,5.3-3.1,7c-2.2,1.8-5,2.2-7.8,2.2H9.5V31.2
		z M11.8,14.8c2,0,4.4-0.1,4.4-2.8c0-2.5-2.2-2.7-4.1-2.7H9.5v5.5H11.8z"/>
	<polygon points="49.5,2.8 46,2.8 41.9,2.8 37.1,12.2 32.2,2.8 22.6,2.8 32.2,19.2 32.2,31.2 40.6,31.2 40.6,19.2 45.8,9.6 
		52.9,9.6 52.9,31.2 61.2,31.2 61.2,9.6 67.1,9.6 67.1,2.8 	"/>
	<path d="M91.6,20.9c-0.5,6.5-5.3,10.8-11.9,10.8c-8.5,0-13-6.2-13-14.3c0-8.2,3.9-15,12.9-15c7.3,0,11.4,4.3,12,11.4l-8.1,0.4
		c0.1-2.4-0.8-5.4-3.8-5.4c-3.9,0-4,5.9-4,8.6c0,2.9,0.2,7.7,4.1,7.7c2.7,0,3.7-2.4,3.9-4.7L91.6,20.9z"/>
	<path d="M117,31.2h-8.7V20.1h-6.7v11.1h-8.7V2.8h8.7v10.5h6.7V2.8h8.7V31.2z"/>
	<path d="M118.6,2.8h13.9c2.2,0,4.4,0.2,6.1,1.5c1.9,1.4,3,3.7,3,6c0,3-1.9,5.5-4.8,6.2v0.1c3.3,0.6,5.5,3.1,5.5,6.5
		c0,2.4-0.9,5.2-2.9,6.6c-2.2,1.6-5.3,1.6-7.8,1.6h-13V2.8z M130.2,13.7c0.8,0,1.8,0,2.4-0.5c0.5-0.5,0.8-1.2,0.8-1.9
		c0-2.1-1.7-2.4-3.4-2.4h-3.4v4.8H130.2z M130.4,24.9c0.9,0,1.8,0,2.5-0.5c0.6-0.5,1-1.2,1-2c0-1-0.5-1.8-1.4-2.2
		c-0.7-0.4-1.7-0.4-2.5-0.4h-3.4v5.1H130.4z"/>
	<path d="M166.9,31.2l1.7-5.6h7.6l1.6,5.6h8.9l-8.9-28.4h-9.2L162,24.3h-9.4V2.8h-8.8v28.4H166.9z M170.1,19.4l2.3-8.2l2.3,8.2
		H170.1z"/>
	<path d="M209.5,20.9c-0.5,6.5-5.3,10.8-11.9,10.8c-8.5,0-13-6.2-13-14.3c0-8.2,3.9-15,12.9-15c7.3,0,11.4,4.3,12,11.4l-8.1,0.4
		c0.1-2.4-0.8-5.4-3.8-5.4c-3.9,0-4,5.9-4,8.6c0,2.9,0.2,7.7,4.1,7.7c2.7,0,3.7-2.4,3.9-4.7L209.5,20.9z"/>
	<path d="M226.8,31.2l-4.9-10.7l-3,4.1v6.6h-8.2V2.8h8.2v11.7l7.9-11.7h7.8l-7.2,10.4l8.9,18H226.8z"/>
</g>
<rect x="-30" y="-37.9" class="st0" width="297" height="108"/>
</svg>
