<?xml version="1.0" encoding="utf-8"?>
<!-- Generator: Adobe Illustrator 18.1.1, SVG Export Plug-In . SVG Version: 6.00 Build 0)  -->
<!DOCTYPE svg PUBLIC "-//W3C//DTD SVG 1.1//EN" "http://www.w3.org/Graphics/SVG/1.1/DTD/svg11.dtd">
<svg version="1.1" id="Layer_1" xmlns="http://www.w3.org/2000/svg" xmlns:xlink="http://www.w3.org/1999/xlink" x="0px" y="0px"
	 viewBox="0 0 75.5 66.2" enable-background="new 0 0 75.5 66.2" xml:space="preserve">
<path opacity="0.8" fill="#D28929" d="M20,38.6c-5.5,0-10.3-1.9-14.1-5.6C1.9,29.2,0,24.7,0,19.3C0,14,1.9,9.5,5.8,5.7
	C9.7,1.9,14.4,0,20,0h37.2v11.1H20c-1.2,0-2.3,0.2-3.4,0.6c-1.1,0.4-2,1-2.8,1.8c-0.8,0.8-1.4,1.7-1.8,2.7c-0.4,1-0.6,2.1-0.6,3.1
	c0,2.3,0.8,4.3,2.5,5.9c1.6,1.7,3.7,2.5,6.1,2.5h17.1c5.5,0,10.3,1.9,14.1,5.6c4,3.8,5.9,8.3,5.9,13.6c0,5.3-2,9.8-5.9,13.6
	c-3.9,3.8-8.6,5.6-14.1,5.6H0V55.1h37.1c1.2,0,2.3-0.2,3.4-0.6c1.1-0.4,2-1,2.8-1.7c0.8-0.7,1.4-1.6,1.8-2.6c0.4-1,0.6-2.1,0.6-3.2
	c0-2.2-0.9-4.2-2.6-5.8c-1.6-1.7-3.7-2.5-6-2.5H20z"/>
<path opacity="0.9" fill="#424143" d="M28.7,38.6c-5.5,0-10.3-1.9-14.1-5.6c-3.9-3.7-5.8-8.3-5.8-13.7c0-5.3,1.9-9.8,5.8-13.5
	C18.3,1.9,23,0,28.7,0h37.2v11.1H28.7c-1.2,0-2.3,0.2-3.4,0.6c-1.1,0.4-2,1-2.8,1.8c-0.8,0.8-1.4,1.7-1.8,2.7
	c-0.4,1-0.6,2.1-0.6,3.1c0,2.3,0.8,4.3,2.5,5.9c1.6,1.7,3.7,2.5,6.1,2.5h17.1c5.5,0,10.3,1.9,14.1,5.6c4,3.8,5.9,8.3,5.9,13.6
	c0,5.3-2,9.8-5.9,13.6c-3.9,3.8-8.6,5.6-14.1,5.6H8.7V55.1h37.1c1.2,0,2.3-0.2,3.4-0.6c1.1-0.4,2-1,2.8-1.7c0.8-0.7,1.4-1.6,1.8-2.6
	c0.4-1,0.6-2.1,0.6-3.2c0-2.2-0.9-4.2-2.6-5.8c-1.6-1.7-3.7-2.5-6-2.5H28.7z"/>
<path opacity="0.6" fill="#D8D8D9" d="M38.3,38.6c-5.5,0-10.3-1.9-14.1-5.6c-3.9-3.7-5.8-8.3-5.8-13.7c0-5.3,1.9-9.8,5.8-13.5
	C28,1.9,32.7,0,38.3,0h37.2v11.1H38.3c-1.2,0-2.3,0.2-3.4,0.6c-1.1,0.4-2,1-2.8,1.8c-0.8,0.8-1.4,1.7-1.8,2.7
	c-0.4,1-0.6,2.1-0.6,3.1c0,2.3,0.8,4.3,2.5,5.9c1.6,1.7,3.7,2.5,6.1,2.5h17.1c5.5,0,10.3,1.9,14.1,5.6c4,3.8,5.9,8.3,5.9,13.6
	c0,5.3-2,9.8-5.9,13.6c-3.9,3.8-8.6,5.6-14.1,5.6H18.3V55.1h37.1c1.2,0,2.3-0.2,3.4-0.6c1.1-0.4,2-1,2.8-1.7
	c0.8-0.7,1.4-1.6,1.8-2.6c0.4-1,0.6-2.1,0.6-3.2c0-2.2-0.9-4.2-2.6-5.8c-1.6-1.7-3.7-2.5-6-2.5H38.3z"/>
</svg>
