<?xml version="1.0" encoding="utf-8"?>
<!-- Generator: Adobe Illustrator 18.1.1, SVG Export Plug-In . SVG Version: 6.00 Build 0)  -->
<!DOCTYPE svg PUBLIC "-//W3C//DTD SVG 1.1//EN" "http://www.w3.org/Graphics/SVG/1.1/DTD/svg11.dtd">
<svg version="1.1" id="Layer_1" xmlns="http://www.w3.org/2000/svg" xmlns:xlink="http://www.w3.org/1999/xlink" x="0px" y="0px"
	 viewBox="0 0 276.9 82.7" enable-background="new 0 0 276.9 82.7" xml:space="preserve">
<g>
	<g>
		<path opacity="0.6" fill="#424143" d="M55.1,38.6c-5.5,0-10.3-1.9-14.1-5.6c-3.9-3.7-5.8-8.3-5.8-13.7c0-5.3,1.9-9.8,5.8-13.5
			C44.7,1.9,49.5,0,55.1,0h37.2v11.1H55.1c-1.2,0-2.3,0.2-3.4,0.6c-1.1,0.4-2,1-2.8,1.8c-0.8,0.8-1.4,1.7-1.8,2.7
			c-0.4,1-0.6,2.1-0.6,3.1c0,2.3,0.8,4.3,2.5,5.9c1.6,1.7,3.7,2.5,6.1,2.5h17.1c5.5,0,10.3,1.9,14.1,5.6c4,3.8,5.9,8.3,5.9,13.6
			c0,5.3-2,9.8-5.9,13.6c-3.9,3.8-8.6,5.6-14.1,5.6H35.1V55.1h37.1c1.2,0,2.3-0.2,3.4-0.6c1.1-0.4,2-1,2.8-1.7
			c0.8-0.7,1.4-1.6,1.8-2.6c0.4-1,0.6-2.1,0.6-3.2c0-2.2-0.9-4.2-2.6-5.8c-1.6-1.7-3.7-2.5-6-2.5H55.1z"/>
		<path opacity="0.5" fill="#717073" d="M126.5,0v11.1H92.2v16.6h34.3v11H92.2v16.5h34.3v11.1H80.8V0H126.5z"/>
		<path opacity="0.5" fill="#717073" d="M188.9,0v11.1h-34.3v16.6h34.3v11h-34.3v16.5h34.3v11.1h-45.7V0H188.9z"/>
		<path opacity="0.6" fill="#424143" d="M204.1,0h57.3v11.1h-22.9v55.1h-11.5V11.1h-23V0z"/>
		<path opacity="0.8" fill="#D4891C" d="M115.5,0h11.4v55.1h34.3v11.1h-45.7V0z"/>
		<path opacity="0.8" fill="#D4891C" d="M211.6,0c4.7,0,9.2,0.9,13.3,2.6c4.1,1.7,7.8,4.1,10.9,7.1l-8.1,7.8
			c-4.5-4.3-9.9-6.5-16.1-6.5c-3.2,0-6.1,0.6-8.9,1.7c-2.8,1.1-5.2,2.7-7.3,4.7c-2.1,2-3.7,4.3-4.9,7c-1.2,2.7-1.8,5.5-1.8,8.6
			s0.6,5.9,1.8,8.6c1.2,2.7,2.9,5,4.9,7c2,2,4.5,3.6,7.3,4.7c2.8,1.1,5.8,1.7,9,1.7c6.2,0,11.6-2.1,16.1-6.4l8.1,7.7
			c-3.2,3-6.8,5.4-10.9,7.2c-4.1,1.7-8.6,2.6-13.3,2.6c-4.7,0-9.2-0.9-13.4-2.6c-4.2-1.7-7.8-4.1-10.9-7.1c-3.1-3-5.6-6.5-7.4-10.5
			c-1.8-4-2.7-8.3-2.7-12.9c0-4.4,0.9-8.7,2.7-12.7c1.8-4,4.3-7.6,7.4-10.6c3.1-3,6.8-5.4,10.9-7.1C202.4,0.9,206.8,0,211.6,0z"/>
	</g>
	<g opacity="0.75">
		<path fill="#717073" d="M146.5,72h-1.3v9.5h1.3v1.2h-2.9V70.8h2.9V72z"/>
		<path fill="#717073" d="M148.5,73.5h1.2v7.1h-1.2V73.5z"/>
		<path fill="#717073" d="M152.6,73.5l4.9,4.3v-4.3h1.2v7.1v0v0l-5-4.3v4.3h-1.2V73.5z"/>
		<path fill="#717073" d="M161.6,73.5h6.2v1.2h-2.5v6h-1.2v-6h-2.5V73.5z"/>
		<path fill="#717073" d="M175.5,73.5v1.2h-3.7v1.8h3.7v1.2h-3.7v1.8h3.7v1.2h-4.9v-7.1H175.5z"/>
		<path fill="#717073" d="M183.1,80.6l-1.4-2.4h-2.1v2.4h-1.2v-7.1h3.7c0.7,0,1.3,0.2,1.7,0.7c0.5,0.5,0.7,1,0.7,1.7
			c0,0.5-0.1,0.9-0.4,1.3c-0.3,0.4-0.7,0.7-1.1,0.9l1.5,2.6H183.1z M182.1,74.7h-2.5V77l2.5,0c0.3,0,0.6-0.1,0.9-0.3
			c0.2-0.2,0.4-0.5,0.4-0.8c0-0.3-0.1-0.6-0.4-0.8C182.7,74.8,182.4,74.7,182.1,74.7z"/>
		<path fill="#717073" d="M192.8,79.4h-3.4l-0.6,1.2h-1.4l3.7-7.1l3.7,7.1h-1.4L192.8,79.4z M190,78.2h2.2l-1.1-2.1L190,78.2z"/>
		<path fill="#717073" d="M199.9,73.5c0.5,0,1,0.1,1.4,0.3c0.4,0.2,0.8,0.4,1.2,0.8l-0.9,0.8c-0.5-0.5-1.1-0.7-1.7-0.7
			c-0.3,0-0.7,0.1-1,0.2c-0.3,0.1-0.6,0.3-0.8,0.5c-0.2,0.2-0.4,0.5-0.5,0.8c-0.1,0.3-0.2,0.6-0.2,0.9c0,0.3,0.1,0.6,0.2,0.9
			c0.1,0.3,0.3,0.5,0.5,0.8c0.2,0.2,0.5,0.4,0.8,0.5c0.3,0.1,0.6,0.2,1,0.2c0.7,0,1.3-0.2,1.7-0.7l0.9,0.8c-0.3,0.3-0.7,0.6-1.2,0.8
			c-0.4,0.2-0.9,0.3-1.4,0.3c-0.5,0-1-0.1-1.4-0.3c-0.4-0.2-0.8-0.4-1.2-0.8c-0.3-0.3-0.6-0.7-0.8-1.1c-0.2-0.4-0.3-0.9-0.3-1.4
			c0-0.5,0.1-0.9,0.3-1.4c0.2-0.4,0.5-0.8,0.8-1.1c0.3-0.3,0.7-0.6,1.2-0.8C198.9,73.6,199.4,73.5,199.9,73.5z"/>
		<path fill="#717073" d="M205.4,73.5h6.2v1.2h-2.5v6h-1.2v-6h-2.5V73.5z"/>
		<path fill="#717073" d="M214.4,73.5h1.2v7.1h-1.2V73.5z"/>
		<path fill="#717073" d="M219.8,73.5l2.3,4.5l2.3-4.5h1.4l-3.7,7.1l-3.7-7.1H219.8z"/>
		<path fill="#717073" d="M233.6,73.5v1.2h-3.7v1.8h3.7v1.2h-3.7v1.8h3.7v1.2h-4.9v-7.1H233.6z"/>
		<path fill="#717073" d="M235.7,81.5h1.3V72h-1.3v-1.2h2.9v11.9h-2.9V81.5z"/>
	</g>
	<polygon opacity="0.5" fill="#717073" points="249.7,44.1 249.7,48.8 276.9,35.3 276.9,32.4 249.7,18.8 249.7,23.1 272.9,33.8 	"/>
	<polygon opacity="0.5" fill="#717073" points="27.2,44.1 27.2,48.8 0,35.3 0,32.4 27.2,18.8 27.2,23.1 4,33.8 	"/>
</g>
</svg>
