<?xml version="1.0" encoding="utf-8"?>
<!-- Generator: Adobe Illustrator 19.1.1, SVG Export Plug-In . SVG Version: 6.00 Build 0)  -->
<!DOCTYPE svg PUBLIC "-//W3C//DTD SVG 1.1//EN" "http://www.w3.org/Graphics/SVG/1.1/DTD/svg11.dtd">
<svg version="1.1" id="Layer_1" xmlns="http://www.w3.org/2000/svg" xmlns:xlink="http://www.w3.org/1999/xlink" x="0px" y="0px"
	 viewBox="-20 80.7 157.4 41.3" style="enable-background:new -20 80.7 157.4 41.3;" xml:space="preserve">
<style type="text/css">
	.st0{stroke:#000000;stroke-width:1.8239;}
</style>
<g>
	<g>
		<path class="st0" d="M6.1,88.2c-0.7-1.3-1.5-2.4-2.6-3.2c-1.1-0.8-2.3-1.4-3.8-1.8s-3.1-0.5-4.8-0.5c-1.3,0-2.7,0.1-4.1,0.4
			c-1.4,0.2-2.6,0.7-3.8,1.4c-1.1,0.6-2.1,1.5-2.8,2.6s-1.1,2.5-1.1,4.2c0,1.7,0.4,3,1.1,4.1c0.8,1,1.7,1.8,3,2.5
			c1.2,0.6,2.6,1.1,4.1,1.5c1.5,0.4,3.1,0.7,4.7,1.1c1.8,0.5,3.4,0.9,5,1.3s2.9,1,4.1,1.7c1.2,0.7,2.1,1.6,2.8,2.8
			c0.7,1.2,1,2.7,1,4.7c0,1.8-0.4,3.3-1.2,4.6c-0.7,1.2-1.7,2.3-3,3.1s-2.7,1.4-4.3,1.8c-1.6,0.4-3.2,0.6-4.8,0.6
			c-2.1,0-4.1-0.2-5.9-0.7s-3.4-1.3-4.7-2.3c-1.3-1.1-2.3-2.5-3.1-4.1c-0.7-1.7-1.1-3.7-1-6.1h1.1c0,2.3,0.3,4.2,1,5.7
			c0.7,1.6,1.6,2.8,2.8,3.8s2.7,1.7,4.3,2.1c1.7,0.4,3.5,0.7,5.5,0.7c1.5,0,2.9-0.2,4.4-0.5c1.5-0.3,2.8-0.9,3.9-1.6
			c1.2-0.7,2.1-1.7,2.8-2.8c0.7-1.2,1.1-2.6,1.1-4.2c0-1.9-0.4-3.4-1.2-4.5c-0.8-1.1-1.9-2-3.2-2.6c-1.3-0.7-2.7-1.1-4.3-1.5
			c-1.6-0.3-3.1-0.7-4.5-1c-1.5-0.4-3-0.7-4.5-1.1s-2.9-0.9-4.1-1.6c-1.2-0.7-2.2-1.6-2.9-2.7c-0.7-1.5-1.1-2.9-1.1-4.8
			c0-1.8,0.4-3.4,1.2-4.6c0.8-1.3,1.8-2.3,3-3s2.6-1.3,4.1-1.6c1.5-0.3,3.1-0.5,4.6-0.5c1.9,0,3.6,0.2,5.1,0.6
			c1.6,0.4,2.9,1.1,4.1,2c1.2,0.9,2.2,2,2.9,3.5s1.1,3.2,1.2,5.4H7.1C7.1,91.1,6.7,89.5,6.1,88.2z"/>
		<path class="st0" d="M38.6,120.2H15.5V82.5h1.1v36.6h22V120.2z"/>
		<path class="st0" d="M40,120.2h-1.2l15.3-37.7h1.4l14.9,37.7h-1.2l-5-12.4H45L40,120.2z M54.8,83.6L54.8,83.6l-9.4,23.1h18.4
			L54.8,83.6z"/>
		<path class="st0" d="M76.8,82.5l25.8,36.4h0.1V82.5h1.1v37.7h-1.6L76.4,83.8h-0.1v36.4h-1.1V82.5H76.8z"/>
		<path class="st0" d="M108.4,82.5h28.1v1.1h-13.6v36.6h-1.1V83.6h-13.5v-1.1H108.4z"/>
	</g>
</g>
</svg>
