<?xml version="1.0" encoding="utf-8"?>
<!-- Generator: Adobe Illustrator 19.1.1, SVG Export Plug-In . SVG Version: 6.00 Build 0)  -->
<!DOCTYPE svg PUBLIC "-//W3C//DTD SVG 1.1//EN" "http://www.w3.org/Graphics/SVG/1.1/DTD/svg11.dtd">
<svg version="1.1" id="Layer_1" xmlns="http://www.w3.org/2000/svg" xmlns:xlink="http://www.w3.org/1999/xlink" x="0px" y="0px"
	 viewBox="0 0 367 52" style="enable-background:new 0 0 367 52;" xml:space="preserve">
<style type="text/css">
	.st0{clip-path:url(#SVGID_2_);}
	.st1{fill:#222222;}
</style>
<g>
	<defs>
		<rect id="SVGID_1_" x="-80" y="-26.5" width="536" height="338"/>
	</defs>
	<clipPath id="SVGID_2_">
		<use xlink:href="#SVGID_1_"  style="overflow:visible;"/>
	</clipPath>
	<g class="st0">
		<path d="M366.2,15.5c0,0.1-0.1,0.3-0.3,0.4l-1.2,0.4c-0.1,0.1-0.3,0.2-0.3,0.3l-0.2,0.6c-0.1,0.1-0.2,0.3-0.3,0.4l-3.7,1.8
			c-0.1,0.1-0.2,0.2-0.1,0.4l1.9,3.6c0.1,0.1,0.1,0.4,0,0.5l-1.6,5.3c0,0.1-0.2,0.3-0.3,0.3l-2.3-0.1c-0.1,0-0.2,0.1-0.1,0.2
			l0.4,0.5c0.1,0.1,0,0.2-0.1,0.3l-1.1,0.2c-0.1,0-0.3,0-0.4-0.2l-0.7-1c-0.1-0.1-0.3-0.2-0.4-0.2l-0.6,0c-0.1,0-0.4-0.1-0.5-0.2
			l-2.8-3c-0.1-0.1-0.3-0.1-0.4,0L348,29c-0.1,0.1-0.3,0.2-0.5,0.2l-5.5,0.1c-0.1,0-0.3-0.1-0.3-0.3l-0.6-2.2c0-0.1-0.1-0.2-0.2,0
			l-0.4,0.5c-0.1,0.1-0.2,0.1-0.3,0l-0.6-1c-0.1-0.1-0.1-0.3,0-0.5l0.7-1c0.1-0.1,0.1-0.3,0.1-0.5l-0.2-0.6c0-0.1,0-0.4,0.1-0.5
			l1.9-3.6c0.1-0.1,0-0.3-0.1-0.4l-3.7-1.8c-0.1-0.1-0.3-0.2-0.3-0.4l-1.8-5.2c0-0.1,0-0.3,0.1-0.4l1.9-1.3c0.1-0.1,0.1-0.2,0-0.2
			l-0.6-0.2c-0.1,0-0.2-0.2-0.1-0.3l0.8-0.9c0.1-0.1,0.3-0.2,0.4-0.1l1.2,0.3c0.1,0,0.4,0,0.5-0.1l0.5-0.3c0.1-0.1,0.3-0.1,0.5-0.1
			l4,0.7c0.1,0,0.3-0.1,0.3-0.2l0.6-4.1c0-0.1,0.1-0.3,0.3-0.4L351,1c0.1-0.1,0.3-0.1,0.4,0l1.8,1.4c0.1,0.1,0.2,0,0.2-0.1l0-0.6
			c0-0.1,0.1-0.2,0.3-0.2l1,0.5c0.1,0.1,0.3,0.2,0.3,0.4l0,1.2c0,0.1,0.1,0.3,0.2,0.4l0.5,0.4c0.1,0.1,0.2,0.3,0.3,0.4l0.6,4.1
			c0,0.1,0.2,0.2,0.3,0.2l4-0.7c0.1,0,0.4,0,0.5,0.1l4.5,3.1c0.1,0.1,0.2,0.3,0.1,0.4l-0.8,2.2c-0.1,0.1,0,0.2,0.2,0.2l0.6-0.2
			c0.1,0,0.2,0,0.2,0.2L366.2,15.5z M348.5,12.1c-0.1,0.2-0.3,0.4-0.6,0.4l-6.3,0.5c-0.2,0-0.3,0.1-0.1,0.3l4.8,4.1
			c0.2,0.1,0.3,0.4,0.2,0.7l-1.5,6.1c-0.1,0.2,0.1,0.3,0.2,0.2l5.4-3.3c0.2-0.1,0.5-0.1,0.7,0l5.4,3.3c0.2,0.1,0.3,0,0.3-0.2
			l-1.4-6.2c0-0.2,0-0.5,0.2-0.7l4.8-4.1c0.2-0.1,0.1-0.3-0.1-0.3l-6.3-0.5c-0.2,0-0.5-0.2-0.6-0.4l-2.4-5.8c-0.1-0.2-0.2-0.2-0.3,0
			L348.5,12.1z"/>
		<path class="st1" d="M0.7,12.5l13.9,0l0,1.9c-3,0-4,0.6-4,2.1c0,0.9,0.4,2.2,0.8,3.4l6.1,20.4h0.1l5.7-18.5l-1.5-5
			c-0.6-1.9-1.1-2.4-4.2-2.4l0-1.9l14.1,0l0,1.9c-3,0-4.3,0.6-4.3,2.2c0,1.2,0.8,2.9,1.3,4.6l5.9,19.6h0.1L40.5,21
			c0.3-1,0.8-2.6,0.8-4.2c0-1.9-0.8-2.4-4.7-2.4l0-1.9l12.2,0l0,1.9c-3.4,0-4.3,1.5-5.6,5.7l-9.5,30.5l-1.9,0l-7.4-24.9h-0.1
			l-7.7,24.9l-1.9,0l-10-33c-0.8-2.5-1.3-3.1-4-3.1L0.7,12.5z"/>
		<path class="st1" d="M48.6,50.5l0-1.9c3.2,0,4.2-0.6,4.2-2.3l0-17.6c0-1.8-1-2.3-4.2-2.3l0-1.9l9.4-0.3l0,22.1
			c0,1.8,1,2.3,4.2,2.3l0,1.9L48.6,50.5z M57.8,15.9c0,1.8-1.4,3.1-3.1,3.1c-1.7,0-3.1-1.3-3.1-3.1c0-1.8,1.4-3.1,3.1-3.1
			C56.4,12.8,57.8,14.1,57.8,15.9"/>
		<path class="st1" d="M65,50.5l0-1.9c3.2,0,4.2-0.6,4.2-2.3l0-29.3c0-1.8-1-2.3-4.2-2.3l0-1.9l9.4-0.3l0,33.8c0,1.8,1,2.3,4.2,2.3
			l0,1.9L65,50.5z"/>
		<path class="st1" d="M81.5,50.5l0-1.9c3.2,0,4.2-0.6,4.2-2.3l0-29.3c0-1.8-1-2.3-4.2-2.3l0-1.9l9.4-0.3l0,33.8
			c0,1.8,1,2.3,4.2,2.3l0,1.9L81.5,50.5z"/>
		<path class="st1" d="M97.9,50.5l0-1.9c3.2,0,4.2-0.6,4.2-2.3l0-17.6c0-1.8-1-2.3-4.2-2.3l0-1.9l9.4-0.3l0,22.1
			c0,1.8,1,2.3,4.2,2.3l0,1.9L97.9,50.5z M107.2,15.9c0,1.8-1.4,3.1-3.1,3.1c-1.7,0-3.1-1.3-3.1-3.1c0-1.8,1.4-3.1,3.1-3.1
			C105.8,12.8,107.2,14.1,107.2,15.9"/>
		<path class="st1" d="M141.9,44c0,3.6-1.8,6.7-5.7,6.7c-3.3,0-4-2.1-4.5-5h-0.1c-1.5,4.1-4.8,5.3-8.9,5.3c-3.9,0-7.8-2-7.8-6.3
			c0-6.4,11.7-8.9,16.3-10.5l0-5.1c0-2.8-3.6-3.4-5.7-3.4c-1.9,0-3.5,0.3-5.2,1.4c1.5,0.3,2.4,1.4,2.4,2.9c0,1.7-1.3,3.2-3.2,3.2
			c-1.9,0-3.2-1.5-3.2-3.2c0-3.4,4.4-6.2,9.4-6.2c7.2,0,10.7,1.8,10.7,7.6l0,13.4c0,2.8,0.7,3.1,1.7,3.1c1.8,0,2.2-2.5,2.1-3.9
			L141.9,44z M131.3,36c-3.9,0.9-10.4,3.7-10.4,8.5c0,2.5,1.3,4.3,3.9,4.3c3.5,0,6.5-3.3,6.5-8L131.3,36z"/>
		<path class="st1" d="M178.3,50.4l0-18.5c0-3.9-1.2-5.9-4.7-5.9c-2.6,0-5.7,2-5.7,9l0,11.2c0,1.8,1,2.3,3.9,2.3l0,1.9l-9.1,0
			l0-18.5c0-3.9-1.2-5.9-4.7-5.9c-2.6,0-5.7,2-5.7,9l0,11.2c0,1.8,1,2.3,4.3,2.3l0,1.9l-13.6,0l0-1.9c3.1,0,4.1-0.6,4.1-2.3l0-17.6
			c0-1.8-1-2.3-4.1-2.3l0-1.9l9-0.3l0,5h0.1c1.2-3.2,3.6-5.3,7.1-5.3c4.1,0,6.8,1.8,8.1,5.9c1.8-4.1,4.7-5.9,8.1-5.9
			c3.5,0,8.1,1.5,8.1,8.6l0,13.9c0,1.8,1,2.3,4,2.3l0,1.9L178.3,50.4z"/>
		<path class="st1" d="M190.9,50.7l0-9.5l1.5,0c1.2,4.7,4.8,8,9.7,7.9c2.6,0,5.9-1.6,5.9-4.6c0-7.7-17-3.2-17-13.1
			c0-4.9,4.4-7.7,9.4-7.7c4.7,0,6.2,1.9,7.2,1.9c0.9,0,1.2-0.9,1.3-1.4l1.9,0l0,8.1l-1.9,0c-1.7-4.1-3.7-6.6-8.4-6.6
			c-2.4,0-5,1-5,3.8c0,6.7,17,2.5,17,12.7c0,5.9-4.9,9-10.3,9c-5,0-6.5-2.1-8.2-2.1c-1,0-1.3,1.1-1.5,1.8L190.9,50.7z"/>
		<path class="st1" d="M253.5,50.4h-14.6v-1.9c3.2,0,4.2-0.6,4.2-2.3V28.7c0-1.8-1-2.3-4-2.3v-1.9l8.8-0.3v7.5h0.1
			c1.2-4.4,3-7.8,7.6-7.8c3,0,4.4,2.2,4.4,3.8c0,1.5-1.2,2.9-2.9,2.9c-1.8,0-2.7-1.1-2.7-2.6c0-0.9,0.4-1.7,1.2-2.2
			c-0.2-0.1-0.4-0.1-0.7-0.1c-3.7,0-6.5,6.8-6.5,17.3c0,4.6,0.3,5.6,5.2,5.6V50.4z"/>
		<path class="st1" d="M266.5,37.3c0,7.6,3.3,11.9,8,11.9c3.7,0,6.2-2.3,8.3-5.1l1.3,0.9c-2.5,3.6-5.5,6.1-11.4,6.1
			c-6.9,0-12.2-6.3-12.2-13.7c0-7.3,5.3-13.6,12.2-13.6c6.5,0,11.7,4.5,11.7,13.5H266.5z M278.8,35.4c0-4-0.8-9.7-6.2-9.7
			c-5.3,0-6.1,5.7-6.1,9.7H278.8z"/>
		<path class="st1" d="M284,24.5h12.6v1.9c-2.7,0-3.1,0.2-3.1,1.4c0,0.8,0.6,1.8,5.2,15.4h0.1L304,29l-0.6-1.5
			c-0.4-1.1-1-1.1-3.8-1.1v-1.9h12.6v1.9c-3,0-3.5,0.1-3.5,1.1c0,1.3,0.7,2.2,5.4,15.6h0.1c4.6-12.4,5.3-13.5,5.3-14.9
			c0-1.6-1-1.8-3.9-1.8v-1.9h10.6v1.9c-2.4,0-3.9,0.4-4.7,3l-7.8,21.1h-2.2l-6.4-18l-6.8,18h-2.2l-8.2-22.8
			c-0.4-1.2-2.1-1.3-3.9-1.3V24.5z"/>
		<path class="st1" d="M239.1,26.3c-1-7.6-3.7-12-11.5-12l0,30.6c0,2.7,0.9,3.6,5.3,3.6l0,1.9l-16.2,0l0-1.9c4.4,0,5.3-1,5.3-3.7
			l0-30.6c-7.8,0-10.5,3.4-11.3,10l-1.9,1.2l0.3-13l15.7,0l15.7,0l0.3,13L239.1,26.3z"/>
	</g>
	<rect x="323.3" y="-160.5" class="st0" width="40.4" height="40.4"/>
</g>
</svg>
